<svg xmlns="http://www.w3.org/2000/svg" width="30" height="30" viewBox="0 0 30 30">
  <defs>
    <filter id="button-objects-a" width="150%" height="150%" x="-25%" y="-25%" filterUnits="objectBoundingBox">
      <feOffset in="SourceAlpha" result="shadowOffsetOuter1"/>
      <feGaussianBlur in="shadowOffsetOuter1" result="shadowBlurOuter1" stdDeviation="2"/>
      <feColorMatrix in="shadowBlurOuter1" result="shadowMatrixOuter1" values="0 0 0 0 0   0 0 0 0 0   0 0 0 0 0  0 0 0 0.5 0"/>
      <feMerge>
        <feMergeNode in="shadowMatrixOuter1"/>
        <feMergeNode in="SourceGraphic"/>
      </feMerge>
    </filter>
  </defs>
  <path fill="#FFF" fill-rule="evenodd" d="M12.8653846,21.0459736 L21.5192308,16.3269231 L21.5192308,7.72716346 L12.8653846,10.8777043 L12.8653846,21.0459736 Z M12,9.34975962 L21.438101,5.91526442 L12,2.48076923 L2.56189904,5.91526442 L12,9.34975962 Z M23.25,5.94230769 L23.25,16.3269231 C23.25,16.6424295 23.168871,16.9353953 23.0066106,17.2058293 C22.8443502,17.4762634 22.623499,17.6881002 22.3440505,17.8413462 L12.8248197,23.0336538 C12.5724146,23.1778853 12.2974774,23.25 12,23.25 C11.7025226,23.25 11.4275854,23.1778853 11.1751803,23.0336538 L1.65594952,17.8413462 C1.37650101,17.6881002 1.15564985,17.4762634 0.993389423,17.2058293 C0.831128996,16.9353953 0.75,16.6424295 0.75,16.3269231 L0.75,5.94230769 C0.75,5.58172897 0.853664829,5.25270581 1.0609976,4.95522837 C1.26833036,4.65775092 1.54326752,4.44591409 1.88581731,4.31971154 L11.4050481,0.858173077 C11.6033664,0.786057332 11.8016817,0.75 12,0.75 C12.1983183,0.75 12.3966336,0.786057332 12.5949519,0.858173077 L22.1141827,4.31971154 C22.4567325,4.44591409 22.7316696,4.65775092 22.9390024,4.95522837 C23.1463352,5.25270581 23.25,5.58172897 23.25,5.94230769 Z" filter="url(#button-objects-a)" transform="translate(3 3)"/>
</svg>
