<svg width="26px" height="30px" viewBox="0 0 26 30" version="1.1" xmlns="http://www.w3.org/2000/svg" xmlnsXlink="http://www.w3.org/1999/xlink">
    <g stroke="none" strokeWidth="1" fill="none" fillRule="evenodd">
        <g transform="translate(-839.000000, -636.000000)" fill="#E72B70">
            <path d="M862.104575,663.254902 L862.104575,644.169935 L847.169935,644.169935 L847.169935,663.254902 L862.104575,663.254902 Z M862.104575,641.490196 C862.84532,641.490196 863.488015,641.751631 864.03268,642.27451 C864.577345,642.797388 864.849673,643.42919 864.849673,644.169935 L864.849673,663.254902 C864.849673,663.995646 864.577345,664.638342 864.03268,665.183007 C863.488015,665.727672 862.84532,666 862.104575,666 L847.169935,666 C846.42919,666 845.786495,665.727672 845.24183,665.183007 C844.697165,664.638342 844.424837,663.995646 844.424837,663.254902 L844.424837,644.169935 C844.424837,643.42919 844.697165,642.797388 845.24183,642.27451 C845.786495,641.751631 846.42919,641.490196 847.169935,641.490196 L862.104575,641.490196 Z M858.019608,636 L858.019608,638.745098 L841.679739,638.745098 L841.679739,657.830065 L839,657.830065 L839,638.745098 C839,638.004354 839.261435,637.361658 839.784314,636.816993 C840.307192,636.272328 840.938994,636 841.679739,636 L858.019608,636 Z" id="content_copy---material"></path>
        </g>
    </g>
</svg>
