<svg xmlns="http://www.w3.org/2000/svg" width="30" height="30" viewBox="0 0 30 30">
  <defs>
    <filter id="button-viewer-a" width="142.9%" height="166.7%" x="-21.4%" y="-33.3%" filterUnits="objectBoundingBox">
      <feOffset in="SourceAlpha" result="shadowOffsetOuter1"/>
      <feGaussianBlur in="shadowOffsetOuter1" result="shadowBlurOuter1" stdDeviation="2"/>
      <feColorMatrix in="shadowBlurOuter1" result="shadowMatrixOuter1" values="0 0 0 0 0   0 0 0 0 0   0 0 0 0 0  0 0 0 0.5 0"/>
      <feMerge>
        <feMergeNode in="shadowMatrixOuter1"/>
        <feMergeNode in="SourceGraphic"/>
      </feMerge>
    </filter>
  </defs>
  <path fill="#FFF" fill-rule="evenodd" d="M25.5238095,8.64285714 C24.0032993,6.28206492 22.0976884,4.51649891 19.8069196,3.34610615 C20.4171244,4.38645527 20.7222222,5.51181604 20.7222222,6.72222222 C20.7222222,8.57284325 20.0645114,10.1558507 18.7490699,11.4712922 C17.4336285,12.7867336 15.850621,13.4444444 14,13.4444444 C12.149379,13.4444444 10.5663715,12.7867336 9.25093006,11.4712922 C7.93548863,10.1558507 7.27777778,8.57284325 7.27777778,6.72222222 C7.27777778,5.51181604 7.58287559,4.38645527 8.19308036,3.34610615 C5.90231163,4.51649891 3.99670072,6.28206492 2.47619048,8.64285714 C3.80663694,10.6935453 5.47467168,12.3265688 7.48034474,13.5419767 C9.4860178,14.7573845 11.6592145,15.3650794 14,15.3650794 C16.3407855,15.3650794 18.5139822,14.7573845 20.5196553,13.5419767 C22.5253283,12.3265688 24.1933631,10.6935453 25.5238095,8.64285714 Z M14.7202381,2.88095238 C14.7202381,2.68088524 14.6502156,2.51083073 14.5101687,2.37078373 C14.3701217,2.23073673 14.2000671,2.16071429 14,2.16071429 C12.7495804,2.16071429 11.6767365,2.60835779 10.781436,3.50365823 C9.88613557,4.39895868 9.43849206,5.47180261 9.43849206,6.72222222 C9.43849206,6.92228936 9.50851451,7.09234388 9.64856151,7.23239087 C9.7886085,7.37243787 9.95866302,7.44246032 10.1587302,7.44246032 C10.3587973,7.44246032 10.5288518,7.37243787 10.6688988,7.23239087 C10.8089458,7.09234388 10.8789683,6.92228936 10.8789683,6.72222222 C10.8789683,5.86193353 11.1840661,5.12669783 11.7942708,4.51649306 C12.4044756,3.90628828 13.1397113,3.60119048 14,3.60119048 C14.2000671,3.60119048 14.3701217,3.53116803 14.5101687,3.39112103 C14.6502156,3.25107404 14.7202381,3.08101952 14.7202381,2.88095238 Z M27.4444444,8.64285714 C27.4444444,8.98297128 27.3444124,9.32808191 27.1443452,9.6781994 C25.7438753,11.9789715 23.8607716,13.8220624 21.4949777,15.2075273 C19.1291838,16.5929922 16.6308829,17.2857143 14,17.2857143 C11.3691171,17.2857143 8.87081623,16.5904914 6.50502232,15.2000248 C4.13922842,13.8095582 2.25612473,11.9689681 0.855654762,9.6781994 C0.655587624,9.32808191 0.555555556,8.98297128 0.555555556,8.64285714 C0.555555556,8.30274301 0.655587624,7.95763237 0.855654762,7.60751488 C2.25612473,5.31674615 4.13922842,3.47615609 6.50502232,2.08568948 C8.87081623,0.695222876 11.3691171,0 14,0 C16.6308829,0 19.1291838,0.695222876 21.4949777,2.08568948 C23.8607716,3.47615609 25.7438753,5.31674615 27.1443452,7.60751488 C27.3444124,7.95763237 27.4444444,8.30274301 27.4444444,8.64285714 Z" filter="url(#button-viewer-a)" transform="translate(1 6)"/>
</svg>
