<svg xmlns="http://www.w3.org/2000/svg" width="18" height="16" viewBox="0 0 18 16">
  <path fill="none" stroke="#9B9B9B" d="M27.7552083,367.865385 C28.6406294,368.776848 29.0833333,369.890118 29.0833333,371.205228 C29.0833333,372.520339 28.6406294,373.633609 27.7552083,374.545072 L20.9583333,381.615385 L14.1614583,374.545072 C13.2760372,373.633609 12.8333333,372.520339 12.8333333,371.205228 C12.8333333,369.890118 13.2760372,368.776848 14.1614583,367.865385 C14.9427122,367.032047 15.8997339,366.615385 17.0325521,366.615385 C18.1653702,366.615385 19.1223919,367.032047 19.9036458,367.865385 L20.9583333,368.959135 L22.0520833,367.865385 C22.8333372,367.032047 23.7838486,366.615385 24.9036458,366.615385 C26.0234431,366.615385 26.9739544,367.032047 27.7552083,367.865385 Z" transform="translate(-12 -366)"/>
</svg>
