<svg xmlns="http://www.w3.org/2000/svg" width="46" height="20" viewBox="0 0 46 20">
  <path fill="#DADADA" d="M19.7247429,13.1869388 C20.0174196,13.4673817 20.1817723,13.8477695 20.1817723,14.2443532 C20.1817723,14.6409368 20.0171972,15.0213247 19.7245205,15.3017675 C19.0824555,15.9163549 18.4399456,16.5305161 17.7961013,17.1436119 C14.9066974,19.8602418 10.3675398,20.7416335 6.63835827,19.3432553 C2.6976756,17.8656029 -0.0747466712,13.919585 0.00153608488,9.83568987 C0.0678108992,6.28945216 2.26288613,2.84763464 5.53459349,1.17520668 C7.02088404,0.415496483 8.69643589,0.0146507928 10.390002,0.00015982683 C10.431813,-5.32756101e-05 10.4734016,-5.32756101e-05 10.5152125,0.00015982683 C13.2338143,0.0233879929 15.9068243,1.0893264 17.8421379,2.9318101 L19.5688414,4.58633745 C19.5950845,4.61851592 19.6231067,4.64962887 19.6529081,4.67967632 L28.5488564,13.2037739 C28.5750994,13.2276414 28.6017873,13.2506565 28.6293647,13.2728191 C29.2382924,13.8562936 29.8476648,14.4391288 30.4583717,15.0206853 C32.9868225,17.3978431 37.3500628,17.6778597 40.1725247,15.5282954 C42.4320956,13.8072801 43.4744783,10.738818 42.6633902,8.05287485 C41.8027072,5.20305591 38.9239784,3.04795093 35.7463457,2.9844464 C35.6876324,2.98359399 35.6289192,2.98338089 35.5699835,2.98359399 C33.6604682,2.99978978 31.7829784,3.74969727 30.4227879,5.0447208 C30.4227879,5.0447208 29.3848531,6.03948299 28.5315093,6.85715706 C28.2392774,7.13696056 27.8431853,7.29423016 27.4299685,7.29423016 C27.0169741,7.29423016 26.6206596,7.13696056 26.3286501,6.85715706 C26.3284277,6.85694395 26.3284277,6.85694395 26.3282053,6.85673085 C26.035751,6.57650114 25.8713984,6.19632639 25.8713984,5.79995585 C25.8713984,5.40358531 26.0359734,5.02341056 26.3284277,4.74318085 C26.9751631,4.12411826 27.6223434,3.50548187 28.270858,2.887911 C30.2219618,1.05352519 32.8925255,-0.00772496347 35.6767349,0.00015982683 C38.3286171,0.0227486855 40.9322387,1.01857639 42.8613251,2.79798177 C43.3018969,3.20436812 43.5721114,3.50271154 43.8861383,3.89098419 C46.9483461,7.68015868 46.7070435,13.5688184 43.0087754,17.0945983 C43.008553,17.0948114 43.0094426,17.0937459 43.0092202,17.093959 C39.2649156,20.682391 32.6365446,20.9815868 28.5626451,17.4093506 C28.447665,17.3085532 28.3353536,17.2049854 28.2248215,17.0997128 L23.0340357,12.1259018 L23.0273637,12.1322949 L20.8251717,10.0221545 L20.8318437,10.0157614 C19.0906842,8.34738242 17.3550847,6.67388896 15.6083653,5.01083751 C14.252178,3.73584561 12.4056015,3.00000288 10.4967534,2.98359399 L10.4084611,2.98359399 C6.62901752,3.01598557 3.18383917,6.18034371 3.11467317,9.88896548 C3.06151988,12.7302603 4.99438703,15.5229678 7.77303646,16.5650387 C10.4084611,17.5531948 13.5925434,16.9396728 15.6439491,14.9868021 C15.6439491,14.9868021 16.6738775,13.9999247 17.5227733,13.1865126 C17.8145604,12.9067091 18.2106525,12.7496526 18.6234245,12.7496526 C19.0364189,12.7496526 19.4322886,12.9067091 19.7242981,13.1865126 C19.7245205,13.1867257 19.7245205,13.1867257 19.7247429,13.1869388 Z"/>
</svg>
