<svg xmlns="http://www.w3.org/2000/svg" width="29" height="37" viewBox="0 0 29 37">
  <defs>
    <linearGradient id="marker-a" x1="50%" x2="50%" y1="0%" y2="96.923%">
      <stop offset="0%" stop-color="#F55656"/>
      <stop offset="100%" stop-color="#CD115B"/>
    </linearGradient>
  </defs>
  <g fill="none" fill-rule="evenodd" transform="translate(2 2)">
    <path fill="#FFF" stroke="#FFF" stroke-width="2" d="M10.4697864,32.8152094 C10.3232636,32.6653159 10.1320361,32.4533932 9.89320276,32.1775065 C9.02242622,31.1861274 8.34699269,30.4095968 7.86612898,29.8469862 C7.38287568,29.2815799 6.70580519,28.4653277 5.83338011,27.3964979 C4.94937867,26.3134857 4.24453685,25.3904204 3.71718137,24.6239597 C3.19524507,23.8653752 2.60464886,22.9418925 1.94428134,21.8522861 C1.26568466,20.7326016 0.741336792,19.7056777 0.371753124,18.7680901 C0.00837946111,17.8462565 -0.308346025,16.8495893 -0.578938671,15.7780424 C-0.859005345,14.6689784 -1,13.598829 -1,12.5683594 C-1,10.7530321 -0.629009612,9.00407743 0.11072388,7.33016621 C0.843528355,5.67193437 1.81936596,4.23149289 3.03655284,3.01489119 C4.25481453,1.7972152 5.69935166,0.824521211 7.36388896,0.0985268657 C9.04164982,-0.633234984 10.7999108,-1 12.6302083,-1 C16.6293974,-1 19.9102033,0.320229369 22.4095381,2.95799491 C24.8018523,5.51214212 26,8.73339739 26,12.5683594 C26,18.0250003 22.4248485,24.7498603 15.3435064,32.81183 C14.6853548,33.5818674 13.8731314,34 12.9557292,34 L12.8580729,34 C12.4239979,34 11.9939064,33.8807786 11.5738588,33.6568609 C11.2269532,33.4719336 10.9752173,33.3127106 10.7930895,33.1504347 C10.6636355,33.0350913 10.5572974,32.9270801 10.4697864,32.8152094 Z"/>
    <path fill="url(#marker-a)" d="M12.6302083,0 C16.3628659,0 19.3793288,1.21385505 21.6796875,3.64160156 C23.8932402,6.00489463 25,8.98045081 25,12.5683594 C25,17.7246352 21.5278125,24.2558198 14.5833333,32.1621094 C14.1059004,32.7207059 13.5633711,33 12.9557292,33 L12.8580729,33 C12.5976549,33 12.3263903,32.9248054 12.0442708,32.7744141 C11.7621514,32.6240227 11.5668408,32.5004888 11.4583333,32.4038086 C11.3498258,32.3071284 11.2738717,32.2265628 11.2304688,32.1621094 C11.1002598,32.0332025 10.9049492,31.8183609 10.6445312,31.5175781 C9.77647135,30.5292919 9.10373503,29.7558622 8.62630208,29.1972656 C8.14886914,28.6386691 7.47613281,27.827642 6.60807292,26.7641602 C5.74001302,25.7006783 5.05100081,24.7983435 4.54101562,24.0571289 C4.03103044,23.3159143 3.45052409,22.4082085 2.79947917,21.3339844 C2.14843424,20.2597603 1.64930729,19.282231 1.30208333,18.4013672 C0.954859375,17.5205034 0.651042969,16.5644583 0.390625,15.5332031 C0.130207031,14.501948 0,13.5136766 0,12.5683594 C0,10.8925697 0.341793457,9.28125773 1.02539062,7.734375 C1.70898779,6.18749227 2.61501172,4.8501033 3.74348958,3.72216797 C4.87196745,2.59423264 6.21201481,1.69189792 7.76367188,1.01513672 C9.31532894,0.338375522 10.9374915,0 12.6302083,0 Z M12.5325521,6.21972656 C13.3789105,6.21972656 14.1872791,6.3862288 14.9576823,6.71923828 C15.7280854,7.05224776 16.3953965,7.49267304 16.9596354,8.04052734 C17.5238743,8.58838165 17.9687484,9.24364853 18.2942708,10.0063477 C18.6197933,10.7690468 18.7825521,11.5693317 18.7825521,12.4072266 C18.7825521,14.1259852 18.1749193,15.586908 16.9596354,16.7900391 C15.7443516,17.9931701 14.2740972,18.5947266 12.5488281,18.5947266 C10.8235591,18.5947266 9.34787939,17.9931701 8.12174479,16.7900391 C6.89561019,15.586908 6.28255208,14.1259852 6.28255208,12.4072266 C6.28255208,11.7412076 6.38563265,11.0966828 6.59179687,10.4736328 C6.7979611,9.85058282 7.09635221,9.28125258 7.48697917,8.765625 C7.87760612,8.24999742 8.32790544,7.8042011 8.83789063,7.42822266 C9.34787581,7.05224421 9.92295687,6.75683701 10.563151,6.54199219 C11.2033452,6.32714736 11.8598057,6.21972656 12.5325521,6.21972656 Z M12.5325521,16.5322266 C13.4223135,16.5322266 14.2252568,16.2744166 14.9414062,15.7587891 C16.0915856,14.9208942 16.6666667,13.7929758 16.6666667,12.375 C16.6666667,11.2363224 16.2597697,10.2641642 15.4459635,9.45849609 C14.6321574,8.652828 13.6501794,8.25 12.5,8.25 C11.3498206,8.25 10.3678426,8.652828 9.55403646,9.45849609 C8.74023031,10.2641642 8.33333333,11.2363224 8.33333333,12.375 C8.33333333,13.5136776 8.7456556,14.4912069 9.5703125,15.3076172 C10.3949694,16.1240275 11.3823727,16.5322266 12.5325521,16.5322266 Z"/>
  </g>
</svg>
