<?xml version="1.0" encoding="UTF-8"?>
<svg width="20px" height="28px" viewBox="0 0 20 28" version="1.1" xmlns="http://www.w3.org/2000/svg" xmlns:xlink="http://www.w3.org/1999/xlink">
    <!-- Generator: Sketch 48.2 (47327) - http://www.bohemiancoding.com/sketch -->
    <title>location-pin - simple-line-icons</title>
    <desc>Created with Sketch.</desc>
    <defs></defs>
    <g id="Desktop-Copy-7" stroke="none" stroke-width="1" fill="none" fill-rule="evenodd" transform="translate(-857.000000, -142.000000)">
        <path d="M867.71875,168.978516 C873.65628,162.162075 876.625,156.644552 876.625,152.425781 C876.625,151.195306 876.439455,150.023443 876.068359,148.910156 C875.697264,147.796869 875.145511,146.781255 874.413086,145.863281 C873.68066,144.945308 872.70899,144.217776 871.498047,143.680664 C870.287103,143.143552 868.910164,142.875 867.367188,142.875 C865.66796,142.875 864.090828,143.304683 862.635742,144.164062 C861.180657,145.023442 860.023442,146.190422 859.164062,147.665039 C858.304683,149.139656 857.875,150.726554 857.875,152.425781 C857.875,153.187504 857.982421,153.99316 858.197266,154.842773 C858.41211,155.692387 858.670897,156.483395 858.973633,157.21582 C859.276369,157.948246 859.710935,158.76855 860.277344,159.676758 C860.843753,160.584965 861.341795,161.356442 861.771484,161.991211 C862.201174,162.62598 862.787106,163.402339 863.529297,164.320312 C864.271488,165.238286 864.847654,165.936521 865.257812,166.415039 C865.667971,166.893557 866.244137,167.562496 866.986328,168.421875 L867.484375,168.978516 L867.601562,169.095703 C867.660157,169.05664 867.699219,169.017578 867.71875,168.978516 Z M867.279297,146.654297 C868.041019,146.654297 868.768551,146.805663 869.461914,147.108398 C870.155277,147.411134 870.755857,147.811521 871.263672,148.30957 C871.771487,148.80762 872.171874,149.403317 872.464844,150.09668 C872.757814,150.790043 872.904297,151.517574 872.904297,152.279297 C872.904297,153.841805 872.357427,155.169916 871.263672,156.263672 C870.169916,157.357427 868.846687,157.904297 867.293945,157.904297 C865.741203,157.904297 864.413091,157.357427 863.30957,156.263672 C862.206049,155.169916 861.654297,153.841805 861.654297,152.279297 C861.654297,151.673825 861.747069,151.087893 861.932617,150.521484 C862.118165,149.955075 862.386717,149.437502 862.738281,148.96875 C863.089846,148.499998 863.495115,148.094728 863.954102,147.75293 C864.413088,147.411131 864.930661,147.142579 865.506836,146.947266 C866.083011,146.751952 866.673825,146.654297 867.279297,146.654297 Z M867.279297,156.029297 C868.080082,156.029297 868.802731,155.794924 869.447266,155.326172 C870.482427,154.564449 871,153.539069 871,152.25 C871,151.214839 870.633793,150.331058 869.901367,149.598633 C869.168942,148.866207 868.285161,148.5 867.25,148.5 C866.214839,148.5 865.331058,148.866207 864.598633,149.598633 C863.866207,150.331058 863.5,151.214839 863.5,152.25 C863.5,153.285161 863.87109,154.173824 864.613281,154.916016 C865.355472,155.658207 866.244135,156.029297 867.279297,156.029297 Z" id="location-pin---simple-line-icons" fill="#FFFFFF"></path>
    </g>
</svg>