<?xml version="1.0" encoding="UTF-8"?>
<svg width="31px" height="26px" viewBox="0 0 31 26" version="1.1" xmlns="http://www.w3.org/2000/svg" xmlns:xlink="http://www.w3.org/1999/xlink">
    <!-- Generator: Sketch 48.2 (47327) - http://www.bohemiancoding.com/sketch -->
    <title>comment-o - FontAwesome</title>
    <desc>Created with Sketch.</desc>
    <defs></defs>
    <g id="Desktop-Copy-8" stroke="none" stroke-width="1" fill="none" fill-rule="evenodd" transform="translate(-852.000000, -143.000000)">
        <path d="M867.5,145.285714 C865.223203,145.285714 863.094318,145.673545 861.113281,146.449219 C859.132245,147.224892 857.5586,148.271199 856.392299,149.58817 C855.225999,150.905141 854.642857,152.328117 854.642857,153.857143 C854.642857,155.107149 855.041849,156.298543 855.839844,157.431362 C856.637839,158.56418 857.76227,159.543523 859.21317,160.36942 L860.669643,161.206473 L860.217634,162.813616 C859.949775,163.829246 859.559154,164.789058 859.045759,165.69308 C860.742196,164.989952 862.276779,164.03572 863.649554,162.830357 L864.36942,162.194196 L865.323661,162.294643 C866.093754,162.383929 866.819193,162.428571 867.5,162.428571 C869.776797,162.428571 871.905682,162.04074 873.886719,161.265067 C875.867755,160.489393 877.4414,159.443087 878.607701,158.126116 C879.774001,156.809145 880.357143,155.386168 880.357143,153.857143 C880.357143,152.328117 879.774001,150.905141 878.607701,149.58817 C877.4414,148.271199 875.867755,147.224892 873.886719,146.449219 C871.905682,145.673545 869.776797,145.285714 867.5,145.285714 Z M882.5,153.857143 C882.5,155.799117 881.830364,157.593184 880.491071,159.239397 C879.151779,160.885611 877.332601,162.185821 875.033482,163.140067 C872.734364,164.094313 870.223228,164.571429 867.5,164.571429 C866.718746,164.571429 865.909602,164.526786 865.072545,164.4375 C862.862712,166.390635 860.295774,167.741068 857.371652,168.488839 C856.824774,168.64509 856.18862,168.767857 855.46317,168.857143 L855.379464,168.857143 C855.212053,168.857143 855.061385,168.79855 854.927455,168.681362 C854.793526,168.564174 854.704241,168.410715 854.659598,168.220982 L854.659598,168.204241 C854.626116,168.159598 854.623326,168.092634 854.651228,168.003348 C854.67913,167.914062 854.69029,167.858259 854.68471,167.835937 C854.679129,167.813616 854.704241,167.760603 854.760045,167.676897 L854.860491,167.526228 C854.871652,167.509487 854.910714,167.462054 854.977679,167.383929 C855.044643,167.305803 855.089286,167.25558 855.111607,167.233259 C855.189733,167.143973 855.362722,166.951452 855.63058,166.655692 C855.898439,166.359932 856.090959,166.14788 856.208147,166.019531 C856.325335,165.891182 856.498325,165.67076 856.727121,165.358259 C856.955916,165.045757 857.137276,164.761162 857.271205,164.504464 C857.405135,164.247767 857.555803,163.918529 857.723214,163.516741 C857.890626,163.114953 858.035714,162.69085 858.158482,162.24442 C856.406241,161.251111 855.025117,160.023445 854.015067,158.561384 C853.005017,157.099323 852.5,155.531258 852.5,153.857143 C852.5,151.915169 853.169636,150.121102 854.508929,148.474888 C855.848221,146.828675 857.667399,145.528465 859.966518,144.574219 C862.265636,143.619973 864.776772,143.142857 867.5,143.142857 C870.223228,143.142857 872.734364,143.619973 875.033482,144.574219 C877.332601,145.528465 879.151779,146.828675 880.491071,148.474888 C881.830364,150.121102 882.5,151.915169 882.5,153.857143 Z" id="comment-o---FontAwesome" fill="#FFFFFF"></path>
    </g>
</svg>