<svg xmlns="http://www.w3.org/2000/svg" xmlns:xlink="http://www.w3.org/1999/xlink" width="80" height="80" viewBox="0 0 80 80">
  <defs>
    <circle id="premix-a" cx="40" cy="40" r="40"/>
    <rect id="premix-c" width="50" height="30" rx="2"/>
  </defs>
  <g fill="none" fill-rule="evenodd">
    <mask id="premix-b" fill="#fff">
      <use xlink:href="#premix-a"/>
    </mask>
    <use fill="#FFF" xlink:href="#premix-a"/>
    <rect width="48" height="28" x="70" y="26" stroke="#979797" stroke-width="2" mask="url(#premix-b)" rx="2"/>
    <rect width="48" height="28" x="-38" y="26" stroke="#979797" stroke-width="2" mask="url(#premix-b)" rx="2"/>
    <g transform="translate(15 25)">
      <mask id="premix-d" fill="#fff">
        <use xlink:href="#premix-c"/>
      </mask>
      <rect width="48" height="28" x="1" y="1" stroke="#979797" stroke-width="2" rx="2"/>
      <polygon fill="#FFF" fill-rule="nonzero" points="7 5 45 5 45 38 9.438 34.462 5.503 26.837" mask="url(#premix-d)"/>
    </g>
    <path fill="#9B9B9B" d="M36.0976641,34.0006121 C38.1976535,34.0675104 39.9362386,35.8345465 39.9485417,38.1137001 L39.9485417,44.9127137 C41.4818185,43.6531814 44.0908496,44.7358563 44.9789813,46.9604148 C46.2438962,45.6509011 48.5230498,45.2664284 49.867166,46.3521791 C50.6845548,47.012703 51.0974784,48.0477033 51.3389271,49.0311842 C52.7453279,48.065389 54.9237497,48.1153705 56.1579068,49.4241152 C58.8661318,52.2938187 57.7703849,56.7929172 57.5120193,61.3097014 C57.2721084,65.5027596 55.4835418,69.9964754 50.7637561,72.4855511 C48.9029087,73.4667252 46.7629342,73.7735343 44.6498727,73.848122 C39.8731851,74.016521 35.1772367,70.9761116 32.6973884,67.3620691 C29.6715889,62.9513994 26.6165696,58.6537646 23.8029991,53.3203606 C22.6565018,51.1473214 22.4042877,47.9269789 25.3185901,47.0619155 C27.5523759,46.3990847 29.9907012,48.2576253 32.0076445,50.2030567 C32.0076445,50.2030567 32.0806943,37.9529905 32.0806943,37.9529905 C32.084539,37.511616 32.0960732,37.4877787 32.1191416,37.2940045 C32.3482872,35.4023993 33.8661851,33.9660096 36.0976641,34.0006121 Z M35.9484887,36.3059099 C35.1595509,36.3197509 34.3967573,36.9418276 34.3875299,37.9629868 L34.3875299,53.3895657 C34.3221696,54.5468282 32.8780905,54.8113454 32.0222545,53.6571586 C30.3005861,51.3972286 27.6031263,48.0884574 25.6461608,49.4587178 C24.4143105,50.3207053 26.0321712,52.7359622 27.4378031,54.8536374 C29.6554411,58.1947043 31.8077187,61.5549949 33.9138597,64.9952558 C36.6436152,69.4043876 41.5348757,72.4809374 47.3811661,71.2598524 C51.1382324,70.4747594 54.2755289,67.0806352 54.9560454,63.4227628 C55.6265657,59.8202545 55.7595932,55.9547669 55.0529325,52.3907058 C54.7153656,50.6882611 52.2631993,49.7862884 51.6703425,52.8559177 C51.6703425,52.8559177 50.8114307,54.2607806 49.8125709,53.5471994 C49.8125709,53.5471994 49.7095322,46.3875506 46.8705865,48.3675845 C45.937856,49.0181121 45.7932943,50.2745686 45.8294347,51.5071878 C45.8294347,51.5071878 45.0289627,53.2457729 43.9916556,52.4814414 C42.8036353,51.6048438 43.9893488,48.5321388 42.2330779,46.8066257 C42.1700244,46.7443411 42.1008194,46.6882081 42.0223869,46.6459162 C40.7505516,45.9577102 40.5006444,48.2599322 40.2638092,49.5317675 C40.2084452,49.8301183 40.1623085,50.1300069 40.1223233,50.4314334 C40.0715729,50.8205197 40.0323567,51.2119128 40.0031368,51.6040749 C39.9539243,52.2507578 39.943928,53.202712 39.943928,53.202712 C39.8362757,54.0854611 39.6325052,54.0370175 39.2157369,54.2015718 C38.4737048,54.493771 37.6724639,53.4049446 37.6724639,53.4049446 C37.628634,53.188102 37.6301719,53.1165901 37.6417061,52.6313857 C37.6417061,47.7501215 37.768582,42.8673194 37.6393992,37.988362 C37.6101793,37.1971174 37.0773003,36.3566603 36.0899746,36.3082167 C36.043069,36.3066788 35.9961633,36.3059099 35.9484887,36.3059099 Z"/>
  </g>
</svg>
